<svg width="245" height="30" viewBox="0 0 245 30" fill="none" xmlns="http://www.w3.org/2000/svg">
<path d="M40.32 6.39953V12.0795H49.48V17.3595H40.32V23.5195H50.68V28.9995H33.48V0.919531H50.68V6.39953H40.32Z" fill="black"/>
<path d="M72.3206 28.9995L66.6006 20.3995L61.5606 28.9995H53.8006L62.8006 14.7195L53.6006 0.919531H61.5606L67.2006 9.39953L72.1606 0.919531H79.9206L71.0006 15.0795L80.2806 28.9995H72.3206Z" fill="black"/>
<path d="M103.914 0.919531V6.39953H96.4744V28.9995H89.6344V6.39953H82.1944V0.919531H103.914Z" fill="black"/>
<path d="M136.024 0.919531V6.39953H128.584V28.9995H121.744V6.39953H114.304V0.919531H136.024Z" fill="black"/>
<path d="M146.177 0.919531V17.7195C146.177 19.3995 146.59 20.6929 147.417 21.5995C148.243 22.5062 149.457 22.9595 151.057 22.9595C152.657 22.9595 153.883 22.5062 154.737 21.5995C155.59 20.6929 156.017 19.3995 156.017 17.7195V0.919531H162.857V17.6795C162.857 20.1862 162.323 22.3062 161.257 24.0395C160.19 25.7729 158.75 27.0795 156.937 27.9595C155.15 28.8395 153.15 29.2795 150.937 29.2795C148.723 29.2795 146.737 28.8529 144.977 27.9995C143.243 27.1195 141.87 25.8129 140.857 24.0795C139.843 22.3195 139.337 20.1862 139.337 17.6795V0.919531H146.177Z" fill="black"/>
<path d="M187.86 0.919531V6.39953H180.42V28.9995H173.58V6.39953H166.14V0.919531H187.86Z" fill="black"/>
<path d="M204.572 29.2795C201.932 29.2795 199.506 28.6662 197.292 27.4395C195.106 26.2129 193.359 24.5062 192.053 22.3195C190.773 20.1062 190.133 17.6262 190.133 14.8795C190.133 12.1329 190.773 9.6662 192.053 7.47953C193.359 5.29286 195.106 3.5862 197.292 2.35953C199.506 1.13286 201.932 0.519531 204.572 0.519531C207.212 0.519531 209.626 1.13286 211.812 2.35953C214.026 3.5862 215.759 5.29286 217.012 7.47953C218.292 9.6662 218.932 12.1329 218.932 14.8795C218.932 17.6262 218.292 20.1062 217.012 22.3195C215.732 24.5062 213.999 26.2129 211.812 27.4395C209.626 28.6662 207.212 29.2795 204.572 29.2795ZM204.572 23.0395C206.812 23.0395 208.599 22.2929 209.932 20.7995C211.292 19.3062 211.973 17.3329 211.973 14.8795C211.973 12.3995 211.292 10.4262 209.932 8.95953C208.599 7.4662 206.812 6.71953 204.572 6.71953C202.306 6.71953 200.493 7.45286 199.133 8.91953C197.799 10.3862 197.133 12.3729 197.133 14.8795C197.133 17.3595 197.799 19.3462 199.133 20.8395C200.493 22.3062 202.306 23.0395 204.572 23.0395Z" fill="black"/>
<path d="M237.058 28.9995L231.218 18.3995H229.578V28.9995H222.738V0.919531H234.218C236.431 0.919531 238.311 1.3062 239.858 2.07953C241.431 2.85286 242.604 3.91953 243.378 5.27953C244.151 6.61286 244.538 8.1062 244.538 9.75953C244.538 11.6262 244.004 13.2929 242.938 14.7595C241.898 16.2262 240.351 17.2662 238.298 17.8795L244.778 28.9995H237.058ZM229.578 13.5595H233.818C235.071 13.5595 236.004 13.2529 236.618 12.6395C237.258 12.0262 237.578 11.1595 237.578 10.0395C237.578 8.97286 237.258 8.13287 236.618 7.51953C236.004 6.9062 235.071 6.59953 233.818 6.59953H229.578V13.5595Z" fill="black"/>
<path d="M0 28.9995H6.48951V11.7947L19.9161 28.9995H28.3077L6.48951 0.999532H0V28.9995Z" fill="black"/>
<path d="M28.3077 0.999532V16.855L14.7692 0.999532H28.3077Z" fill="black"/>
</svg>
