<svg xmlns="http://www.w3.org/2000/svg" width="60" height="60" viewBox="0 0 32 33" fill="none" style="
    width: 50px;
    height: 64px;
">
              <g clip-path="url(#clip0_845_3110)">
                <path d="M31.625 16.8906C31.625 8.26118 24.6294 1.26562 16 1.26562C7.37055 1.26562 0.375 8.26118 0.375 16.8906C0.375 25.5201 7.37055 32.5156 16 32.5156C24.6294 32.5156 31.625 25.5201 31.625 16.8906Z" fill="url(#paint0_linear_845_3110)"></path>
                <path d="M12.875 14.3906V14.0156H12.5H9.5H9.125V14.3906V22.8906V23.2656H9.5H12.5H12.875V22.8906V14.3906ZM18.5 23.2656H18.875V22.8906V18.1866C18.875 17.6977 19.0327 17.3657 19.2366 17.1576C19.4435 16.9465 19.7202 16.8396 20 16.8396C20.2798 16.8396 20.5565 16.9465 20.7634 17.1576C20.9673 17.3657 21.125 17.6977 21.125 18.1866V22.8906V23.2656H21.5H24.4998H24.8748V22.8906V17.8906C24.8748 16.4719 24.48 15.37 23.7727 14.6204C23.0638 13.8691 22.0825 13.5156 21 13.5156C20.1667 13.5156 19.5583 13.7682 19.104 14.1186C19.0223 14.1816 18.9461 14.2474 18.875 14.3147V14.0156H18.5H15.5H15.125V14.3906V22.8906V23.2656H15.5H18.5ZM11 13.2656C12.0355 13.2656 12.875 12.4261 12.875 11.3906C12.875 10.3551 12.0355 9.51562 11 9.51562C9.96447 9.51562 9.125 10.3551 9.125 11.3906C9.125 12.4261 9.96447 13.2656 11 13.2656Z" fill="url(#paint1_linear_845_3110)" stroke="url(#paint2_linear_845_3110)" stroke-width="0.75"></path>
                <path d="M31.625 16.8906C31.625 8.26118 24.6294 1.26562 16 1.26562C7.37055 1.26562 0.375 8.26118 0.375 16.8906C0.375 25.5201 7.37055 32.5156 16 32.5156C24.6294 32.5156 31.625 25.5201 31.625 16.8906Z" stroke="url(#paint3_linear_845_3110)" stroke-width="0.75"></path>
              </g>
              <defs>
                <linearGradient id="paint0_linear_845_3110" x1="31.7037" y1="32.8906" x2="-0.296307" y2="0.890625" gradientUnits="userSpaceOnUse">
                  <stop stop-color="white" stop-opacity="0.15"></stop>
                  <stop offset="1" stop-opacity="0"></stop>
                </linearGradient>
                <linearGradient id="paint1_linear_845_3110" x1="34.1426" y1="1.50446" x2="13.4109" y2="22.9461" gradientUnits="userSpaceOnUse">
                  <stop stop-color="white" stop-opacity="0"></stop>
                  <stop offset="0.333333" stop-color="white" stop-opacity="0"></stop>
                  <stop offset="0.666667" stop-color="white" stop-opacity="0"></stop>
                  <stop offset="1" stop-color="white" stop-opacity="0.3"></stop>
                </linearGradient>
                <linearGradient id="paint2_linear_845_3110" x1="24.7499" y1="10.1073" x2="11.8819" y2="24.9549" gradientUnits="userSpaceOnUse">
                  <stop stop-color="white"></stop>
                  <stop offset="1" stop-color="white" stop-opacity="0.6"></stop>
                </linearGradient>
                <linearGradient id="paint3_linear_845_3110" x1="31.7037" y1="0.890625" x2="16" y2="32.8906" gradientUnits="userSpaceOnUse">
                  <stop stop-color="white" stop-opacity="0.3"></stop>
                  <stop offset="1" stop-color="white" stop-opacity="0"></stop>
                </linearGradient>
                <clipPath id="clip0_845_3110">
                  <rect width="32" height="32" fill="white" transform="translate(0 0.890625)"></rect>
                </clipPath>
              </defs>
            </svg>