<svg width="557" height="514" viewBox="0 0 557 514" fill="none" xmlns="http://www.w3.org/2000/svg">
<g filter="url(#filter0_f_1580_287)">
<path d="M301.5 103H255.5C169.62 103 100 172.62 100 258.5C100 344.38 169.62 414 255.5 414H301.5C387.38 414 457 344.38 457 258.5C457 172.62 387.38 103 301.5 103Z" fill="url(#paint0_linear_1580_287)" fill-opacity="0.81"/>
</g>
<path d="M480.001 314.561C484.381 312.301 489.531 312.011 494.391 312.811C497.001 313.241 499.721 314.021 501.501 315.991C503.281 317.961 503.611 321.401 501.581 323.081C500.264 323.976 498.675 324.38 497.091 324.221C493.291 324.221 489.091 323.511 486.031 325.801C484.291 327.101 483.141 329.271 481.031 329.911C479.994 330.151 478.908 330.048 477.936 329.617C476.963 329.186 476.158 328.45 475.641 327.521C474.656 325.61 474.437 323.396 475.031 321.331C475.281 319.895 475.86 318.538 476.722 317.363C477.584 316.189 478.706 315.23 480.001 314.561Z" fill="#458D23"/>
<path d="M469.999 295.2C472.679 299.02 477.879 297.76 480.289 295.42C482.699 293.08 483.719 289.71 484.649 286.48C486.769 279.11 488.909 271.38 487.329 263.88C486.949 261.605 485.953 259.478 484.449 257.73C483.683 256.872 482.706 256.23 481.614 255.866C480.523 255.503 479.356 255.432 478.229 255.66C475.609 256.36 473.979 258.92 472.799 261.37C469.325 268.584 467.504 276.483 467.469 284.49C467.469 288.22 467.899 292.12 469.999 295.2Z" fill="#458D23"/>
<path d="M462.646 300.68C465.556 297.24 466.106 292.2 464.806 287.88C463.506 283.56 460.596 279.88 457.226 276.88C453.258 273.362 448.646 270.645 443.646 268.88C441.709 268.109 439.628 267.768 437.546 267.88C436.502 267.938 435.489 268.251 434.595 268.791C433.7 269.332 432.952 270.083 432.416 270.98C430.986 273.7 432.356 276.98 433.846 279.7C436.455 284.453 439.435 288.994 442.756 293.28C445.436 296.73 448.496 300.13 452.566 301.69C456.636 303.25 460.876 303 462.996 300.2" fill="#458D23"/>
<path d="M469.817 352.869C469.958 352.3 470.039 351.716 470.057 351.129C470.177 349.869 470.337 348.279 470.517 346.389C470.751 344.056 471.108 341.736 471.587 339.439C472.21 336.64 473.056 333.894 474.117 331.229C475.156 328.567 476.566 326.066 478.307 323.799C479.725 321.958 481.536 320.455 483.607 319.399C485.01 318.702 486.516 318.232 488.067 318.009C488.651 317.99 489.231 317.906 489.797 317.759C489.212 317.695 488.622 317.695 488.037 317.759C486.427 317.883 484.853 318.292 483.387 318.969C481.203 319.998 479.289 321.522 477.797 323.419C475.978 325.712 474.512 328.263 473.447 330.989C472.373 333.692 471.533 336.483 470.937 339.329C470.489 341.659 470.181 344.013 470.017 346.379C469.867 348.379 469.807 350.019 469.777 351.149C469.731 351.723 469.744 352.299 469.817 352.869Z" fill="#101010"/>
<path d="M470.15 349.22C470.18 348.954 470.18 348.685 470.15 348.42V346.11C470.15 344.11 470.15 341.22 470.25 337.64C470.43 330.49 471.04 322.8 472.25 311.95C473.38 301.75 474.89 289.88 476.48 282.16C476.82 280.4 477.17 278.82 477.48 277.44C477.79 276.06 478.06 274.86 478.31 273.89L478.85 271.65C478.929 271.39 478.976 271.121 478.99 270.85C478.872 271.093 478.778 271.348 478.71 271.61C478.53 272.19 478.31 272.92 478.04 273.82C477.77 274.72 477.44 275.96 477.09 277.35C476.74 278.74 476.35 280.3 475.98 282.05C474.004 291.177 472.518 300.403 471.53 309.69C470.34 320.57 469.8 330.46 469.75 337.63C469.75 341.22 469.75 344.12 469.88 346.12C469.88 347.06 469.98 347.82 470.02 348.42C470.027 348.691 470.071 348.96 470.15 349.22Z" fill="#6A6A6A"/>
<path d="M470.185 330.13C470.246 329.328 470.246 328.522 470.185 327.72C470.095 326.18 469.875 323.94 469.445 321.2C468.918 317.996 468.21 314.824 467.325 311.7C466.281 307.853 464.944 304.092 463.325 300.45C460.572 293.731 456.618 287.57 451.655 282.27C450.796 281.36 449.878 280.508 448.905 279.72C448.485 279.36 448.115 279.01 447.735 278.72L446.675 277.98C446.041 277.499 445.373 277.064 444.675 276.68C444.555 276.84 447.545 278.6 451.315 282.61C456.11 287.956 459.958 294.08 462.695 300.72C464.279 304.342 465.615 308.067 466.695 311.87C467.606 314.966 468.361 318.107 468.955 321.28C469.455 323.99 469.735 326.2 469.955 327.74C469.97 328.541 470.047 329.34 470.185 330.13Z" fill="#101010"/>
<path d="M451.734 363.811L453.644 390.021H487.314L489.234 363.811H451.734Z" fill="#848484"/>
<path d="M493.244 353.48H448.484V363.81H493.244V353.48Z" fill="#777777"/>
<path d="M448.484 389.01V391.88H450.584H492.504V389.01H448.484Z" fill="#787878"/>
<path d="M452.646 396.921L450.586 391.881H490.906L488.496 396.921H452.646Z" fill="#6F6E6E"/>
<path d="M488.606 372.371C488.606 372.371 488.556 372.461 488.446 372.621L487.946 373.281C487.466 373.891 486.816 374.741 485.946 375.791L485.856 375.901L485.776 375.791L480.996 369.121H481.276L476.526 375.841L476.376 376.051L476.216 375.851L470.586 369.161H470.906C470.816 369.291 470.706 369.421 470.596 369.551L465.596 375.861L465.436 376.071L465.276 375.851C463.566 373.441 461.976 371.181 460.536 369.141H460.806L454.966 375.801L454.856 375.921L454.776 375.781L452.946 372.711L452.476 371.891C452.419 371.8 452.372 371.702 452.336 371.601C452.336 371.601 452.406 371.681 452.536 371.861L453.046 372.651C453.516 373.381 454.166 374.391 454.976 375.651H454.786L460.546 368.911L460.686 368.741L460.816 368.921L465.606 375.611H465.286L470.286 369.291L470.596 368.901L470.756 368.701L470.916 368.901L476.526 375.611H476.216L481.006 368.931L481.146 368.731L481.286 368.931L485.996 375.661H485.826L487.826 373.211L488.376 372.581C488.444 372.502 488.521 372.432 488.606 372.371Z" fill="#F4F1F1"/>
<path d="M489.696 363.64C489.696 363.75 481.266 363.85 470.856 363.85C460.446 363.85 452.016 363.75 452.016 363.64C452.016 363.53 460.456 363.43 470.856 363.43C481.256 363.43 489.696 363.52 489.696 363.64Z" fill="#959595"/>
<path d="M491.395 392.161C491.395 392.281 482.235 392.371 470.925 392.371C459.615 392.371 450.445 392.281 450.445 392.161C450.445 392.041 459.615 391.951 470.925 391.951C482.235 391.951 491.395 392.001 491.395 392.161Z" fill="#848484"/>
<path d="M221.107 104.41L221.946 105.827C222.879 107.407 224.252 108.682 225.899 109.496L227.32 110.219L225.899 111.055C224.333 111.994 223.071 113.361 222.259 114.993L221.534 116.41L220.695 114.993C219.749 113.436 218.379 112.178 216.742 111.366L215.32 110.644L216.742 109.808C218.309 108.869 219.572 107.502 220.382 105.869L221.107 104.41Z" fill="#DBDEE4"/>
<path d="M244.858 80L245.417 80.9445C246.039 81.9976 246.954 82.8477 248.052 83.3908L249 83.8725L248.052 84.4298C247.009 85.056 246.167 85.9674 245.626 87.0555L245.142 88L244.583 87.0555C243.953 86.0175 243.039 85.1787 241.948 84.6375L241 84.1558L241.948 83.5986C242.992 82.9724 243.834 82.0609 244.374 80.9728L244.858 80Z" fill="#E9EAED"/>
<path d="M235.521 218.52L256.831 214.41L297.711 223.79L318.431 228.11L318.731 256.42L272.511 264.93L241.321 255.69L229.531 238.34L235.521 218.52Z" fill="#FFBE9D"/>
<path d="M220.374 221.342L240.484 216.602C240.484 216.602 254.704 260.602 289.794 258.672C318.394 257.122 318.424 228.112 318.424 228.112L339.334 231.802C339.334 231.802 348.104 284.892 338.494 322.132C330.494 353.132 323.394 395.612 323.394 395.612H184.484L220.374 221.342Z" fill="#FB9E2D"/>
<path d="M424.147 357.371C424.147 357.371 366.857 257.001 356.547 244.121C345.257 230.021 336.247 231.651 336.247 231.651L330.188 299.261L378.897 368.371L390.508 372.561L424.147 357.371Z" fill="#FB9E2D"/>
<path d="M222.778 220.781C222.778 220.781 190.218 223.381 178.538 276.781C173.258 300.911 166.538 329.191 164.658 348.191C163.258 361.981 171.768 376.321 185.518 378.081L202.778 381.281C207.338 382.128 212.049 381.193 215.94 378.671C219.832 376.148 222.609 372.229 223.698 367.721L229.528 343.581L213.998 338.361L217.588 266.451L222.778 220.781Z" fill="#FB9E2D"/>
<path d="M341.994 269.121C342.071 269.362 342.121 269.61 342.144 269.861C342.234 270.401 342.334 271.121 342.474 272.011C342.544 272.481 342.614 273.011 342.704 273.571C342.794 274.131 342.824 274.761 342.884 275.431C343.024 276.761 343.184 278.281 343.254 279.971C343.496 283.923 343.522 287.886 343.334 291.841C343.101 296.682 342.62 301.509 341.894 306.301C341.144 311.401 340.204 316.221 339.254 320.581C338.304 324.941 337.354 328.851 336.544 332.131C335.734 335.411 335.024 338.041 334.544 339.861C334.304 340.731 334.114 341.431 333.964 341.951C333.904 342.196 333.827 342.437 333.734 342.671C333.755 342.421 333.798 342.173 333.864 341.931C333.984 341.391 334.154 340.691 334.354 339.811L336.194 332.001C336.964 328.711 337.884 324.801 338.794 320.441C339.704 316.081 340.644 311.271 341.394 306.181C342.144 301.091 342.654 296.181 342.864 291.771C343.074 287.361 343.094 283.311 342.864 279.951C342.864 278.271 342.684 276.751 342.574 275.411C342.524 274.751 342.474 274.131 342.434 273.551C342.394 272.971 342.304 272.471 342.254 271.991C342.154 271.101 342.084 270.381 342.024 269.841C341.998 269.602 341.988 269.361 341.994 269.121Z" fill="#263238"/>
<path d="M231.046 346.161C230.977 346.019 230.92 345.872 230.876 345.721C230.776 345.391 230.636 344.971 230.466 344.431L229.826 342.361C229.646 341.419 229.249 340.532 228.666 339.771C227.81 338.949 226.786 338.322 225.666 337.931C224.349 337.433 222.99 337.051 221.606 336.791C218.306 336.179 214.961 335.845 211.606 335.791H211.336V335.531L214.276 316.361C216.166 304.291 217.886 293.361 219.136 285.361C219.786 281.441 220.306 278.251 220.676 275.991C220.856 274.921 221.006 274.071 221.116 273.441C221.116 273.181 221.206 272.961 221.246 272.781C221.253 272.704 221.273 272.63 221.306 272.561C221.321 272.636 221.321 272.715 221.306 272.791C221.306 272.971 221.306 273.191 221.226 273.461C221.146 274.091 221.026 274.941 220.886 276.021C220.556 278.291 220.086 281.491 219.516 285.421C218.296 293.421 216.636 304.331 214.796 316.421C213.716 323.321 212.706 329.851 211.796 335.581L211.566 335.311C214.962 335.398 218.344 335.776 221.676 336.441C223.079 336.721 224.455 337.125 225.786 337.651C226.952 338.078 228.008 338.762 228.876 339.651C229.233 340.052 229.499 340.526 229.656 341.041L230.026 342.371C230.256 343.181 230.446 343.881 230.606 344.461C230.766 345.041 230.866 345.461 230.946 345.771C230.991 345.897 231.025 346.028 231.046 346.161Z" fill="#263238"/>
<path d="M186.195 354.32C186.227 353.865 186.315 353.415 186.455 352.98C186.77 351.775 187.191 350.6 187.715 349.47C189.421 345.693 192.079 342.425 195.43 339.986C198.78 337.548 202.707 336.022 206.825 335.56C208.059 335.409 209.304 335.369 210.545 335.44C211.004 335.446 211.46 335.503 211.905 335.61C210.234 335.62 208.565 335.723 206.905 335.92C202.881 336.475 199.056 338.016 195.771 340.407C192.485 342.797 189.842 345.962 188.075 349.62C187.365 351.152 186.738 352.721 186.195 354.32Z" fill="#263238"/>
<path d="M193.727 327.74C193.981 327.675 194.244 327.652 194.507 327.67C195.225 327.657 195.943 327.69 196.657 327.77C199.018 328.008 201.332 328.587 203.527 329.49C205.721 330.398 207.775 331.614 209.627 333.1C210.188 333.544 210.719 334.025 211.217 334.54C211.567 334.91 211.757 335.12 211.727 335.15C211.697 335.18 210.847 334.45 209.407 333.39C205.63 330.623 201.237 328.818 196.607 328.13C194.837 327.87 193.727 327.83 193.727 327.74Z" fill="#263238"/>
<path d="M227.428 258.671C227.362 258.197 227.339 257.719 227.358 257.241C227.358 256.321 227.298 255.001 227.178 253.371C226.878 249.118 226.147 244.907 224.998 240.801C223.832 236.702 222.261 232.729 220.308 228.941C219.548 227.491 218.908 226.331 218.438 225.551C218.174 225.152 217.947 224.73 217.758 224.291C218.077 224.647 218.362 225.032 218.608 225.441C219.138 226.201 219.828 227.331 220.608 228.771C224.77 236.324 227.131 244.736 227.508 253.351C227.578 254.991 227.568 256.351 227.508 257.241C227.528 257.719 227.502 258.198 227.428 258.671Z" fill="#263238"/>
<g opacity="0.3">
<path d="M340.516 313.91C348.816 299.84 348.996 281.56 341.746 266.91C344.077 282.519 343.576 298.42 340.266 313.85" fill="black"/>
</g>
<g opacity="0.3">
<path d="M266.615 329.821C260.315 331.671 251.615 332.121 245.445 329.821C250.255 336.651 259.525 339.121 267.565 336.901C275.605 334.681 283.025 326.631 283.645 318.301C279.755 323.561 272.925 328.001 266.615 329.821Z" fill="black"/>
</g>
<path d="M289.794 307.1C289.765 307.292 289.715 307.479 289.644 307.66C289.524 308.02 289.384 308.57 289.104 309.23C288.375 311.141 287.468 312.979 286.394 314.72C284.811 317.316 282.899 319.696 280.704 321.8C275.321 327.041 268.371 330.377 260.914 331.3C257.9 331.691 254.848 331.691 251.834 331.3C249.799 331.047 247.79 330.608 245.834 329.99C245.134 329.78 244.624 329.55 244.264 329.42C244.082 329.358 243.904 329.281 243.734 329.19C244.461 329.353 245.178 329.554 245.884 329.79C254.351 332.144 263.381 331.396 271.344 327.68C279.228 323.804 285.457 317.225 288.894 309.14C289.474 307.84 289.744 307.08 289.794 307.1Z" fill="#263238"/>
<path d="M219.559 377.111C219.559 377.111 219.489 377.221 219.309 377.381C219.057 377.632 218.786 377.863 218.499 378.071C217.453 378.852 216.293 379.465 215.059 379.891C213.225 380.501 211.311 380.838 209.379 380.891C207.043 380.965 204.704 380.882 202.379 380.641C197.379 380.211 192.939 379.481 189.729 378.911C188.119 378.621 186.819 378.371 185.929 378.181C185.455 378.117 184.989 378.003 184.539 377.841C185.015 377.849 185.49 377.895 185.959 377.981L189.789 378.541C193.009 379.031 197.469 379.691 202.429 380.121C204.754 380.362 207.092 380.458 209.429 380.411C211.322 380.372 213.2 380.069 215.009 379.511C216.637 378.944 218.171 378.135 219.559 377.111Z" fill="#263238"/>
<path d="M332.498 114L336.608 110C342.078 112.38 344.608 118.73 345.538 124.63C346.468 130.53 346.328 136.73 348.838 142.15C350.758 146.32 354.248 150.15 353.838 154.76C353.448 159.11 349.508 162.63 349.488 167C349.488 171.21 352.988 174.44 355.028 178.12C359.158 185.57 361.838 216.05 359.678 224.3C341.508 222.73 309.328 220.79 291.148 216.61C295.938 185.29 316.108 141.09 332.498 114Z" fill="#263238"/>
<path d="M340.63 141.921C341.89 120.631 326.43 101.151 304.88 98.5806C282.01 95.8606 261.78 112.241 259.88 134.521L254.52 224.461C254.422 226.199 254.908 227.92 255.9 229.351C261.18 237.071 270.74 243.111 279.29 244.301C287.56 245.451 295.95 243.301 302.99 239.381C304.158 238.72 305.132 237.765 305.815 236.611C306.497 235.456 306.865 234.142 306.88 232.801L307.25 212.671C307.249 212.653 307.251 212.636 307.257 212.619C307.263 212.603 307.272 212.588 307.285 212.575C307.297 212.563 307.312 212.553 307.329 212.547C307.345 212.541 307.363 212.539 307.38 212.541C309.264 212.683 311.157 212.629 313.03 212.381C318.35 211.081 331.92 205.861 336.48 185.941C338 179.341 339.52 160.591 340.63 141.921Z" fill="#FFBE9D"/>
<path d="M311.047 171.33C311.047 171.13 313.277 170.91 316.887 170.71C317.797 170.71 318.667 170.56 318.887 169.96C319.021 169.043 318.867 168.107 318.447 167.28L316.207 160.28C313.107 150.36 310.927 142.23 311.327 142.12C311.727 142.01 314.577 149.94 317.677 159.86C318.417 162.31 319.127 164.64 319.807 166.86C320.087 167.86 320.597 169.08 320.047 170.39C319.894 170.696 319.673 170.962 319.4 171.168C319.128 171.374 318.812 171.515 318.477 171.58C317.967 171.682 317.446 171.719 316.927 171.69C313.287 171.67 311.057 171.53 311.047 171.33Z" fill="#263238"/>
<path d="M334.751 149.45C334.361 149.88 332.001 147.9 328.621 147.8C325.241 147.7 322.721 149.47 322.361 149.01C322.181 148.8 322.591 148.01 323.691 147.19C325.144 146.146 326.902 145.612 328.691 145.67C330.478 145.732 332.192 146.39 333.561 147.54C334.611 148.44 335.001 149.26 334.751 149.45Z" fill="#263238"/>
<path d="M300.411 150.311C299.951 150.741 297.492 148.511 293.802 148.191C290.112 147.871 287.242 149.561 286.872 149.061C286.692 148.831 287.191 148.061 288.441 147.241C290.115 146.249 292.064 145.815 294.002 146.001C295.941 146.173 297.772 146.97 299.221 148.271C300.311 149.241 300.631 150.121 300.411 150.311Z" fill="#263238"/>
<path d="M307.244 212.531C307.244 212.531 293.464 212.681 276.984 201.361C276.984 201.361 281.244 219.541 307.134 218.971L307.244 212.531Z" fill="#EB996E"/>
<path d="M309.001 179.631C308.374 178.746 307.534 178.032 306.559 177.555C305.584 177.078 304.506 176.853 303.421 176.901C302.639 176.912 301.866 177.081 301.15 177.397C300.433 177.713 299.788 178.17 299.251 178.741C298.739 179.287 298.411 179.98 298.313 180.723C298.214 181.465 298.35 182.22 298.701 182.881C299.571 184.271 301.551 184.721 303.281 184.361C304.995 183.892 306.599 183.09 308.001 182.001C308.418 181.734 308.784 181.396 309.081 181.001C309.222 180.816 309.305 180.594 309.319 180.363C309.333 180.132 309.278 179.901 309.161 179.701" fill="#EB996E"/>
<path d="M300.446 173C301.026 173 300.796 176.8 303.916 179.72C307.036 182.64 311.166 182.5 311.166 183.03C311.166 183.28 310.166 183.71 308.466 183.63C306.212 183.505 304.071 182.604 302.406 181.08C300.82 179.63 299.865 177.616 299.746 175.47C299.696 173.88 300.186 173 300.446 173Z" fill="#263238"/>
<path d="M300.994 136.371C300.574 137.291 297.064 136.581 292.874 136.751C288.684 136.921 285.234 137.751 284.734 136.901C284.524 136.471 285.164 135.631 286.594 134.811C288.496 133.82 290.596 133.27 292.739 133.201C294.882 133.132 297.013 133.545 298.974 134.411C300.424 135.131 301.134 135.931 300.994 136.371Z" fill="#263238"/>
<path d="M335.48 137.12C334.76 137.92 331.91 137.12 328.48 137.12C325.05 137.12 322.17 137.69 321.48 136.86C321.18 136.46 321.63 135.66 322.89 134.86C324.635 133.945 326.582 133.488 328.551 133.53C330.52 133.572 332.446 134.112 334.15 135.1C335.39 135.91 335.8 136.73 335.48 137.12Z" fill="#263238"/>
<path d="M307.999 94.0806C306.139 90.9206 302.689 89.4806 298.829 88.9006C283.069 86.5106 265.489 96.0006 256.659 109.261C247.829 122.521 247.359 142.311 253.819 156.871L263.649 150.731C283.379 142.591 297.309 123.581 309.999 103.941C311.769 101.271 309.649 96.8306 307.999 94.0806Z" fill="#263238"/>
<path d="M332.275 102.751C325.685 95.2512 320.895 87.7512 307.215 92.9912C305.215 96.8212 309.215 101.791 312.655 104.691C317.655 108.951 321.945 111.821 325.205 114.871C331.785 121.021 339.265 141.711 339.915 153.001C339.915 153.711 341.165 143.311 341.915 143.201C342.835 143.061 346.545 138.521 346.035 132.321C344.275 111.131 338.865 110.241 332.275 102.751Z" fill="#263238"/>
<path d="M298.867 88.9007C299.895 88.7007 300.958 88.7907 301.937 89.1607C304.358 89.9037 306.516 91.3227 308.157 93.2507C308.626 93.7927 309.041 94.3787 309.397 95.0007C309.708 95.6017 309.95 96.2357 310.117 96.8907C310.474 97.9467 310.745 99.0307 310.927 100.131C311.197 102.061 310.737 103.231 310.637 103.201C310.537 103.171 310.687 102.021 310.267 100.251C309.99 99.2037 309.656 98.1717 309.267 97.1607C309.09 96.5697 308.855 95.9967 308.567 95.4507C308.229 94.8777 307.841 94.3357 307.407 93.8307C305.859 92.0367 303.9 90.6437 301.697 89.7707C299.997 89.1607 298.847 89.0607 298.867 88.9007Z" fill="#455A64"/>
<path d="M331.625 156.001C331.626 156.768 331.334 157.506 330.807 158.064C330.281 158.622 329.561 158.957 328.795 159.001C328.415 159.036 328.031 158.996 327.667 158.881C327.302 158.766 326.965 158.58 326.673 158.334C326.381 158.087 326.142 157.784 325.969 157.444C325.796 157.103 325.693 156.732 325.665 156.351C325.646 155.572 325.93 154.816 326.458 154.243C326.986 153.67 327.717 153.325 328.495 153.281C328.881 153.244 329.271 153.286 329.64 153.404C330.01 153.522 330.351 153.714 330.644 153.969C330.937 154.223 331.175 154.535 331.343 154.884C331.512 155.233 331.608 155.613 331.625 156.001Z" fill="#263238"/>
<path d="M298.688 156.161C298.707 156.941 298.423 157.697 297.894 158.27C297.366 158.843 296.636 159.188 295.858 159.231C295.478 159.268 295.095 159.229 294.73 159.116C294.366 159.002 294.028 158.817 293.736 158.571C293.445 158.325 293.205 158.023 293.032 157.683C292.859 157.343 292.755 156.972 292.728 156.591C292.706 155.811 292.989 155.052 293.517 154.477C294.046 153.902 294.778 153.555 295.558 153.511C295.938 153.474 296.322 153.514 296.687 153.628C297.052 153.742 297.391 153.928 297.683 154.175C297.974 154.422 298.214 154.725 298.386 155.067C298.559 155.408 298.661 155.78 298.688 156.161Z" fill="#263238"/>
<path d="M208.048 181.191C209.908 178.131 212.048 175.251 215.448 173.981C218.848 172.711 222.708 171.981 225.378 169.501C229.568 165.651 229.378 159.251 228.998 153.671C228.618 148.091 228.518 141.671 232.798 137.921C236.378 134.791 242.068 134.511 245.168 130.921C247.238 128.531 247.648 125.231 248.368 122.181C250.368 114.011 254.838 99.7414 278.918 91.5312L257.618 172.471C259.208 172.921 263.008 176.541 263.218 178.991C263.408 181.281 262.418 183.601 262.398 185.901C262.398 188.711 265.458 190.391 267.398 192.471C269.858 195.121 270.618 198.941 270.238 202.471C269.45 207.296 268.159 212.025 266.388 216.581C246.628 214.581 217.788 213.941 202.728 201.341C199.998 199.061 203.908 188.001 208.048 181.191Z" fill="#263238"/>
<path d="M263.687 150.73C263.317 150.53 248.767 144.73 247.837 160.08C246.907 175.43 262.477 173.15 262.527 172.72C262.577 172.29 263.687 150.73 263.687 150.73Z" fill="#FFBE9D"/>
<path d="M258.205 166.641C258.135 166.581 257.925 166.811 257.455 166.981C256.805 167.219 256.087 167.194 255.455 166.911C253.875 166.211 252.665 163.561 252.755 160.801C252.806 159.486 253.147 158.199 253.755 157.031C253.929 156.562 254.214 156.142 254.585 155.806C254.955 155.47 255.401 155.229 255.885 155.101C256.197 155.039 256.521 155.088 256.8 155.239C257.08 155.391 257.297 155.636 257.415 155.931C257.595 156.371 257.475 156.671 257.555 156.701C257.635 156.731 257.905 156.461 257.815 155.821C257.757 155.435 257.566 155.081 257.275 154.821C256.874 154.476 256.353 154.303 255.825 154.341C255.189 154.426 254.585 154.672 254.072 155.058C253.559 155.443 253.154 155.954 252.895 156.541C252.164 157.831 251.759 159.279 251.715 160.761C251.625 163.851 253.025 166.831 255.205 167.601C255.608 167.748 256.039 167.8 256.465 167.755C256.891 167.71 257.302 167.569 257.665 167.341C258.155 167.001 258.255 166.671 258.205 166.641Z" fill="#EB996E"/>
<path d="M318.141 154.741C318.222 153.587 318.386 152.441 318.631 151.311C319.093 149.419 319.945 147.646 321.132 146.102C322.319 144.559 323.814 143.28 325.523 142.348C327.232 141.415 329.117 140.849 331.057 140.686C332.997 140.523 334.95 140.766 336.791 141.401C338.058 141.828 339.252 142.449 340.331 143.241C341.482 144.037 342.496 145.016 343.331 146.141C345.122 148.487 346.115 151.346 346.161 154.298C346.208 157.25 345.307 160.139 343.591 162.541C342.798 163.689 341.825 164.702 340.711 165.541C339.66 166.369 338.486 167.027 337.231 167.491C334.91 168.384 332.393 168.64 329.941 168.231C327.802 167.878 325.777 167.024 324.031 165.741C321.474 163.881 319.618 161.214 318.761 158.171C318.485 157.045 318.284 155.903 318.161 154.751C318.156 154.827 318.156 154.904 318.161 154.981C318.161 155.171 318.161 155.391 318.161 155.661C318.169 156.026 318.206 156.391 318.271 156.751C318.326 157.247 318.419 157.739 318.551 158.221C319.353 161.352 321.207 164.112 323.801 166.041C325.722 167.478 327.975 168.406 330.351 168.738C332.727 169.071 335.149 168.796 337.391 167.941C340.052 166.935 342.353 165.159 344.001 162.841C345.784 160.352 346.72 157.357 346.671 154.296C346.623 151.235 345.592 148.271 343.731 145.841C342.864 144.681 341.818 143.669 340.631 142.841C339.522 142.045 338.298 141.424 337.001 141.001C334.733 140.217 332.305 140.02 329.941 140.427C327.577 140.835 325.355 141.833 323.481 143.331C320.944 145.343 319.178 148.168 318.481 151.331C318.366 151.818 318.286 152.312 318.241 152.811C318.192 153.175 318.168 153.543 318.171 153.911C318.171 154.181 318.171 154.401 318.171 154.581C318.158 154.633 318.148 154.687 318.141 154.741Z" fill="#455A64"/>
<path d="M279.498 155.361C279.579 154.208 279.739 153.062 279.978 151.931C280.73 148.863 282.491 146.138 284.978 144.191C286.685 142.853 288.682 141.935 290.808 141.511C293.247 141.029 295.77 141.205 298.118 142.021C299.384 142.453 300.578 143.073 301.658 143.861C302.808 144.66 303.821 145.639 304.658 146.761C306.448 149.106 307.44 151.962 307.488 154.912C307.537 157.861 306.64 160.748 304.928 163.151C304.131 164.299 303.156 165.311 302.038 166.151C300.988 166.979 299.813 167.638 298.558 168.101C296.238 168.995 293.721 169.25 291.268 168.841C289.133 168.488 287.111 167.635 285.368 166.351C282.81 164.491 280.95 161.825 280.088 158.781C279.813 157.656 279.616 156.513 279.498 155.361C279.488 155.437 279.488 155.515 279.498 155.591C279.498 155.771 279.498 156.001 279.498 156.271C279.498 156.637 279.531 157.001 279.598 157.361C279.652 157.858 279.749 158.35 279.888 158.831C280.683 161.966 282.538 164.729 285.138 166.651C286.907 167.979 288.962 168.876 291.138 169.271C293.668 169.707 296.268 169.458 298.668 168.551C301.334 167.553 303.637 165.776 305.278 163.451C307.061 160.963 307.998 157.967 307.949 154.906C307.901 151.846 306.87 148.881 305.008 146.451C303.288 144.184 300.931 142.481 298.238 141.561C295.809 140.731 293.202 140.568 290.688 141.091C288.011 141.641 285.55 142.952 283.599 144.866C281.648 146.779 280.29 149.215 279.688 151.881C279.564 152.366 279.484 152.861 279.448 153.361C279.389 153.724 279.366 154.093 279.378 154.461V155.131C279.401 155.215 279.442 155.294 279.498 155.361Z" fill="#455A64"/>
<path d="M307.102 154.311C307.182 154.361 307.582 153.711 308.512 152.961C309.704 151.973 311.197 151.419 312.745 151.392C314.294 151.365 315.805 151.865 317.032 152.811C318.032 153.521 318.412 154.161 318.482 154.101C318.233 153.47 317.81 152.922 317.262 152.521C316.009 151.425 314.393 150.835 312.729 150.866C311.064 150.898 309.472 151.549 308.262 152.691C307.731 153.112 307.329 153.673 307.102 154.311Z" fill="#455A64"/>
<path d="M260.164 149.75C261.084 150.042 262.033 150.237 262.994 150.33C264.764 150.61 267.214 150.87 269.914 151.11L276.844 151.73C277.794 151.877 278.753 151.95 279.714 151.95C278.794 151.656 277.845 151.458 276.884 151.36C275.124 151.09 272.674 150.83 269.964 150.59L263.044 149.97C262.092 149.818 261.128 149.744 260.164 149.75Z" fill="#455A64"/>
<path d="M340.461 163.39C341.709 161.948 342.721 160.318 343.461 158.56C344.042 156.74 344.335 154.84 344.331 152.93C344.553 153.468 344.656 154.048 344.631 154.63C344.667 156.03 344.436 157.425 343.951 158.74C343.467 160.054 342.734 161.263 341.791 162.3C341.061 163.08 340.501 163.44 340.461 163.39Z" fill="#B4B4B4"/>
<path d="M342.882 147.591C342.962 147.471 343.532 147.761 343.882 148.441C344.232 149.121 344.082 149.741 343.942 149.731C343.802 149.721 343.682 149.211 343.412 148.661C343.142 148.111 342.792 147.701 342.882 147.591Z" fill="#B4B4B4"/>
<path d="M305.156 160.36C305.076 160.36 305.356 159.56 305.586 158.27C306.176 154.886 305.526 151.404 303.756 148.46C303.086 147.34 302.546 146.72 302.606 146.66C303.195 147.09 303.692 147.634 304.066 148.26C305.07 149.714 305.761 151.361 306.093 153.097C306.425 154.832 306.392 156.618 305.996 158.34C305.855 159.063 305.57 159.75 305.156 160.36Z" fill="#B4B4B4"/>
<path d="M252 172.51C252 172.51 251.79 172.81 251.49 173.36C251.06 174.141 250.833 175.018 250.83 175.91C250.814 176.556 250.932 177.199 251.176 177.798C251.42 178.397 251.786 178.939 252.25 179.39C252.809 179.946 253.492 180.361 254.243 180.603C254.994 180.845 255.791 180.905 256.57 180.78C257.344 180.62 258.07 180.284 258.691 179.796C259.312 179.309 259.812 178.683 260.15 177.97C260.423 177.383 260.574 176.748 260.593 176.101C260.612 175.454 260.499 174.811 260.26 174.21C259.944 173.378 259.429 172.636 258.76 172.05C258.28 171.64 257.96 171.47 257.98 171.43C258.31 171.514 258.618 171.672 258.88 171.89C259.643 172.444 260.238 173.199 260.6 174.07C260.89 174.714 261.04 175.413 261.04 176.12C261.04 176.826 260.89 177.525 260.6 178.17C260.256 178.973 259.718 179.679 259.033 180.223C258.349 180.768 257.541 181.133 256.68 181.288C255.82 181.443 254.934 181.381 254.104 181.109C253.273 180.837 252.522 180.363 251.92 179.73C251.422 179.23 251.035 178.63 250.785 177.97C250.535 177.31 250.428 176.604 250.47 175.9C250.504 174.958 250.799 174.045 251.32 173.26C251.67 172.71 252 172.49 252 172.51Z" fill="#101010"/>
<path d="M336.47 184.311C337.316 184.65 338.249 184.706 339.13 184.471C340.072 184.207 340.921 183.684 341.58 182.961C342.392 182.084 342.94 180.996 343.16 179.821C343.389 178.646 343.242 177.428 342.74 176.341C342.328 175.45 341.716 174.666 340.95 174.051C340.211 173.511 339.404 173.07 338.55 172.741C338.804 172.718 339.061 172.753 339.3 172.841C339.976 173.029 340.613 173.337 341.18 173.751C342.029 174.375 342.715 175.195 343.18 176.141C343.751 177.31 343.927 178.634 343.68 179.911C343.435 181.188 342.824 182.366 341.92 183.301C341.187 184.066 340.244 184.598 339.21 184.831C338.517 184.995 337.792 184.957 337.12 184.721C336.65 184.531 336.45 184.331 336.47 184.311Z" fill="#101010"/>
<path d="M281 382.871L295.83 387.261C295.83 387.261 304.01 390.771 307.99 391.681C312.93 392.811 316.3 391.281 316.48 388.531C316.66 385.781 312.82 385.431 312.82 385.431C309.556 384.187 306.382 382.721 303.32 381.041C301.097 379.496 299.279 377.438 298.02 375.041L303.32 375.771C303.32 375.771 314.47 383.771 318.67 386.191C322.87 388.611 323.79 384.361 324.15 383.081C324.51 381.801 311.73 368.831 311.73 368.831C311.73 368.831 323.97 376.691 326.16 378.651C328.35 380.611 331.65 381.251 332.38 379.981C333.11 378.711 335.12 378.701 332.38 373.281C329.64 367.861 307.71 353.281 307.71 353.281L313.71 352.001L320.29 354.931C320.748 357.188 321.682 359.323 323.03 361.191C325.4 364.711 329.61 361.191 329.61 361.191L327 347.691L314 339.551C314 339.551 300.48 341.201 298.47 342.111C296.46 343.021 294.26 346.851 294.26 346.851L290.61 348.331C284.94 349.971 285.13 355.641 283.3 355.821C281.47 356.001 228.13 345.601 228.13 345.601L223.3 344.341C215.3 350.411 212.11 360.441 210.7 369.341C210.7 369.341 209.23 373.701 210.7 376.101L281 382.871Z" fill="#FFBE9D"/>
<path d="M271.205 373.38C271.142 373.094 271.125 372.801 271.155 372.51C271.151 372.174 271.182 371.839 271.245 371.51C271.292 371.056 271.379 370.608 271.505 370.17C272.256 367.645 273.527 365.305 275.235 363.3C276.894 361.284 278.743 359.433 280.755 357.77C281.553 357.043 282.42 356.396 283.345 355.84C282.605 356.606 281.821 357.327 280.995 358C279.072 359.723 277.28 361.589 275.635 363.58C273.975 365.542 272.696 367.797 271.865 370.23C271.275 372.14 271.315 373.39 271.205 373.38Z" fill="#EB996E"/>
<path d="M294.304 346.852C294.304 346.852 293.864 347.082 293.184 347.632C292.236 348.432 291.417 349.373 290.754 350.422C290.276 351.13 289.867 351.884 289.534 352.672C289.227 353.598 289.032 354.558 288.954 355.532C288.817 356.663 288.412 357.747 287.774 358.692C287.05 359.606 286.455 360.616 286.004 361.692C285.319 363.509 285.319 365.514 286.004 367.332L286.074 367.522L285.904 367.632C283.586 369.129 281.907 371.435 281.194 374.102C280.948 375.153 280.798 376.224 280.744 377.302C280.663 377.022 280.629 376.732 280.644 376.442C280.633 375.631 280.721 374.821 280.904 374.032C281.542 371.23 283.241 368.786 285.644 367.212L285.544 367.512C284.82 365.577 284.82 363.446 285.544 361.512C286.005 360.405 286.625 359.37 287.384 358.442C287.992 357.546 288.376 356.517 288.504 355.442C288.625 353.536 289.322 351.712 290.504 350.212C291.21 349.149 292.097 348.218 293.124 347.462C293.401 347.253 293.703 347.082 294.024 346.952C294.113 346.906 294.207 346.873 294.304 346.852Z" fill="#EB996E"/>
<path d="M307.148 352.831C305.869 352.997 304.568 352.859 303.352 352.428C302.136 351.997 301.038 351.286 300.148 350.351C300.248 350.231 301.588 351.261 303.518 351.931C305.448 352.601 307.148 352.681 307.148 352.831Z" fill="#EB996E"/>
<path d="M310.565 367.6C308.634 367.058 306.756 366.342 304.955 365.46C303.084 364.741 301.277 363.865 299.555 362.84C301.481 363.396 303.357 364.112 305.165 364.98C307.036 365.698 308.842 366.575 310.565 367.6Z" fill="#EB996E"/>
<path d="M298.539 374.901C296.598 374.243 294.701 373.461 292.859 372.561C293.903 372.607 294.925 372.873 295.859 373.341C296.856 373.659 297.771 374.191 298.539 374.901Z" fill="#EB996E"/>
<path d="M308.732 368.551C307.871 369.013 307.114 369.646 306.506 370.411C305.899 371.176 305.455 372.058 305.202 373.001C305.132 373.001 305.072 372.651 305.202 372.091C305.343 371.357 305.659 370.669 306.121 370.082C306.584 369.496 307.181 369.029 307.862 368.721C308.352 368.511 308.712 368.491 308.732 368.551Z" fill="#EB996E"/>
<path d="M314.087 360.441C314.147 360.581 313.167 361.081 312.507 362.201C312.171 362.912 311.891 363.647 311.667 364.401C311.525 363.988 311.488 363.547 311.558 363.116C311.627 362.685 311.802 362.278 312.067 361.931C312.827 360.651 314.067 360.301 314.087 360.441Z" fill="#EB996E"/>
<path d="M312.574 345.751C312.524 345.751 312.324 345.521 312.174 345.041C311.994 344.386 311.994 343.696 312.174 343.041C312.348 342.395 312.694 341.807 313.174 341.341C313.534 340.991 313.834 340.871 313.864 340.921C313.387 341.619 313.001 342.375 312.714 343.171C312.565 344.022 312.518 344.888 312.574 345.751Z" fill="#EB996E"/>
<path d="M420.688 350.35C420.688 350.35 420.018 337.23 406.418 334.51C392.818 331.79 368.998 343.35 368.998 343.35L302.258 389.86L304.258 395.61L371.998 386.17L378.198 388.55L425.778 357.29L470.678 324.83L465.678 320.92C465.678 320.92 453.098 329.59 444.778 333.32C436.458 337.05 424.428 343.59 420.688 350.35Z" fill="#959595"/>
<path d="M301.227 397.511L357.707 362.421L417.417 352.831C417.417 352.831 420.417 357.171 425.487 356.111L474.587 322.111L475.517 324.161L380.297 391.061C378.898 391.572 377.387 391.691 375.926 391.406C374.465 391.12 373.11 390.441 372.007 389.441L301.227 397.511Z" fill="#455A64"/>
<path d="M417.418 352.83C417.282 352.977 417.128 353.105 416.958 353.21L415.578 354.21C414.378 355.07 412.648 356.32 410.578 357.9C406.338 361.05 400.578 365.54 394.358 370.63C388.138 375.72 382.548 380.45 378.548 383.9L373.778 388L372.478 389.1C372.337 389.24 372.179 389.361 372.008 389.46C372.008 389.46 372.128 389.3 372.408 389.03L373.638 387.85C374.718 386.85 376.288 385.39 378.268 383.64C382.208 380.12 387.738 375.36 393.988 370.25C400.238 365.14 405.988 360.7 410.318 357.62C412.458 356.07 414.228 354.87 415.468 354.06L416.898 353.14C417.061 353.021 417.235 352.917 417.418 352.83Z" fill="#263238"/>
<path d="M416.807 345.53C411.397 339.72 402.877 337.65 394.957 338.27C387.037 338.89 379.527 341.84 372.137 344.77L303.047 392.06L303.667 393.84L373.127 346.84C373.127 346.84 388.647 341.84 395.517 340.98C406.997 339.55 416.807 345.53 416.807 345.53Z" fill="#101010"/>
<path d="M427.648 351.75L460.868 329.34C460.868 329.34 433.648 343.5 427.648 351.75Z" fill="#101010"/>
<path d="M303.047 392.061C303.132 391.975 303.226 391.897 303.327 391.831L304.187 391.221L307.497 388.891L319.737 380.411L360.237 352.601L371.997 344.601C378.688 341.582 385.75 339.46 392.997 338.291C398.851 337.464 404.82 338.307 410.217 340.721C412.235 341.66 414.094 342.908 415.727 344.421C416.948 345.559 417.987 346.878 418.807 348.331C419.323 349.242 419.726 350.213 420.007 351.221C420.077 351.551 420.137 351.811 420.187 352.011C420.209 352.1 420.226 352.19 420.237 352.281C419.877 350.932 419.346 349.635 418.657 348.421C417.817 347.006 416.772 345.722 415.557 344.611C413.92 343.145 412.073 341.931 410.077 341.011C404.732 338.688 398.845 337.898 393.077 338.731C385.888 339.909 378.882 342.017 372.237 345.001H372.287L360.527 353.001L319.997 380.711L307.657 389.061L304.297 391.301L303.407 391.881C303.293 391.953 303.173 392.014 303.047 392.061Z" fill="#263238"/>
<path d="M363.531 356.311C363.689 356.18 363.864 356.073 364.051 355.991C364.401 355.801 364.921 355.511 365.591 355.171C366.941 354.471 368.911 353.491 371.391 352.371C377.822 349.357 384.646 347.266 391.661 346.161C398.714 345.096 405.919 345.755 412.661 348.081C414.687 348.812 416.634 349.746 418.471 350.871C419.131 351.251 419.601 351.621 419.931 351.871C420.106 351.978 420.27 352.102 420.421 352.241C420.421 352.241 419.691 351.821 418.371 351.071C416.511 350.026 414.56 349.153 412.541 348.461C405.83 346.259 398.696 345.66 391.711 346.711C384.746 347.812 377.957 349.83 371.521 352.711C369.031 353.791 367.041 354.711 365.661 355.361L364.081 356.091C363.906 356.182 363.721 356.256 363.531 356.311Z" fill="#263238"/>
<path d="M468.9 323.42C468.9 323.42 468.76 323.55 468.47 323.75L467.18 324.61L462.39 327.69C458.33 330.29 452.74 333.88 446.61 337.92C440.48 341.96 435 345.67 431 348.37L426.27 351.55L424.97 352.4C424.825 352.506 424.667 352.594 424.5 352.66C424.624 352.529 424.761 352.412 424.91 352.31L426.16 351.38C427.24 350.58 428.82 349.45 430.79 348.06C434.73 345.29 440.21 341.52 446.35 337.48C452.49 333.44 458.12 329.9 462.22 327.38C464.27 326.12 465.94 325.12 467.1 324.44L468.45 323.66C468.592 323.566 468.743 323.486 468.9 323.42Z" fill="#263238"/>
<path d="M438.68 359.381C438.001 361.014 437.139 362.564 436.109 364.001C434.829 365.521 430.65 367.641 430.32 370.531C429.99 373.421 430.67 380.201 426.15 385.361C423.236 388.571 419.549 390.981 415.44 392.361L397.61 390.621L369.13 379.411C368.493 379.25 367.945 378.846 367.605 378.284C367.264 377.723 367.158 377.05 367.31 376.411C367.486 375.717 367.866 375.091 368.4 374.613C368.935 374.136 369.6 373.829 370.31 373.731L370.99 373.621C370.99 373.621 369.35 372.281 371.7 369.931C373.7 367.931 377.97 369.061 380.17 369.791C382.37 370.521 395.27 375.911 397.58 376.741C399.63 377.471 401.21 378.121 401.21 378.121C401.21 378.121 384.7 366.981 384.47 365.521C384.2 363.771 384.38 362.971 386.07 361.751C388.07 360.301 391.35 361.851 394.53 363.191C396.9 364.191 412.01 371.651 412.01 371.651C412.01 371.651 412.69 370.991 412.01 369.651C411.33 368.311 406.31 361.851 405.52 360.651C404.73 359.451 404.52 358.771 405.31 357.761C406.41 356.331 409.31 355.651 411.98 358.091C413.67 359.651 419.68 363.691 419.68 363.691L447.42 343.451C447.42 343.451 450.87 343.361 449.67 348.171C448.47 352.981 438.68 359.381 438.68 359.381Z" fill="#FFBE9D"/>
<path d="M418 376.251C416.89 376.004 415.856 375.494 414.986 374.762C414.116 374.031 413.434 373.101 413 372.051C413.13 371.971 413.94 373.211 415.32 374.361C416.7 375.511 418.07 376.101 418 376.251Z" fill="#EB996E"/>
<path d="M420.281 364.181C420.281 364.121 420.651 364.011 421.281 364.091C422.067 364.205 422.807 364.533 423.419 365.039C424.031 365.545 424.492 366.21 424.751 366.961C424.941 367.541 424.911 367.961 424.841 367.961C424.422 367.027 423.824 366.184 423.081 365.481C422.241 364.87 421.29 364.428 420.281 364.181Z" fill="#EB996E"/>
<path d="M421.59 369.751C421.44 369.751 421.37 368.261 420.78 366.561C420.19 364.861 419.36 363.611 419.48 363.561C420.359 364.309 420.984 365.312 421.27 366.431C421.718 367.478 421.829 368.637 421.59 369.751Z" fill="#EB996E"/>
<path d="M437.998 357.94C437.998 357.99 437.648 357.79 437.288 357.31C436.831 356.672 436.546 355.929 436.458 355.15C436.371 354.371 436.484 353.583 436.788 352.86C437.028 352.32 437.298 352.05 437.348 352.09C436.992 353.048 436.865 354.076 436.978 355.092C437.09 356.108 437.44 357.083 437.998 357.94Z" fill="#EB996E"/>
<path d="M412.924 383.23C412.282 383.377 411.616 383.377 410.974 383.23C409.42 382.955 407.929 382.4 406.574 381.59C405.225 380.798 403.956 379.877 402.784 378.84C402.262 378.458 401.801 377.999 401.414 377.48C401.99 377.77 402.527 378.129 403.014 378.55C404.233 379.491 405.509 380.356 406.834 381.14C408.146 381.918 409.564 382.501 411.044 382.87C412.184 383.11 412.924 383.15 412.924 383.23Z" fill="#EB996E"/>
<path d="M417.569 380.371C417.709 380.371 417.719 381.371 416.879 382.201C416.039 383.031 415.019 382.991 415.039 382.851C415.059 382.711 415.829 382.511 416.509 381.851C417.189 381.191 417.419 380.351 417.569 380.371Z" fill="#EB996E"/>
<path d="M424.374 375.37C424.434 375.37 424.434 375.64 424.244 376C423.982 376.443 423.586 376.793 423.114 377C422.646 377.227 422.118 377.304 421.604 377.22C421.204 377.14 421.004 376.98 421.034 376.92C421.064 376.86 421.954 377 422.894 376.53C423.834 376.06 424.234 375.32 424.374 375.37Z" fill="#EB996E"/>
<path d="M400.361 386.721C400.311 386.851 393.681 384.091 385.561 380.541C377.441 376.991 370.901 374.001 371.001 373.881C371.101 373.761 377.691 376.521 385.811 380.071C393.931 383.621 400.421 386.591 400.361 386.721Z" fill="#EB996E"/>
<path d="M536 395C536 395.538 430.998 396 301.511 396C172.023 396 67 395.538 67 395C67 394.461 171.982 394 301.511 394C431.04 394 536 394.423 536 395Z" fill="#B2B3B4"/>
<path d="M79.7231 289.11L101.423 395.64H289.773C290.77 395.64 291.727 395.244 292.432 394.539C293.137 393.834 293.533 392.877 293.533 391.88C293.534 391.386 293.438 390.896 293.25 390.438C293.061 389.981 292.785 389.565 292.435 389.215C292.086 388.865 291.671 388.587 291.214 388.397C290.757 388.208 290.268 388.11 289.773 388.11H251.853L231.733 289C231.547 288.075 231.047 287.243 230.318 286.644C229.59 286.044 228.677 285.715 227.733 285.71L83.8031 284.17C83.1889 284.164 82.5811 284.295 82.0241 284.554C81.4672 284.813 80.9751 285.193 80.584 285.666C80.1929 286.14 79.9126 286.695 79.7636 287.291C79.6147 287.887 79.6008 288.508 79.7231 289.11Z" fill="#767676"/>
<path d="M79.7233 289.111L79.6633 288.791C79.6226 288.459 79.6226 288.123 79.6633 287.791C79.7344 287.153 79.9519 286.541 80.2988 286.001C80.6458 285.462 81.1128 285.01 81.6633 284.681C82.0457 284.446 82.4649 284.277 82.9033 284.181C83.3922 284.099 83.8882 284.069 84.3833 284.091H87.7733L96.2533 284.161L150.683 284.671L188.623 285.061L209.883 285.271L221.023 285.391L226.723 285.451C227.213 285.451 227.663 285.451 228.183 285.451C228.691 285.508 229.185 285.653 229.643 285.881C230.566 286.331 231.297 287.097 231.703 288.041C231.891 288.507 232.025 288.994 232.103 289.491L232.393 290.921C232.583 291.921 232.783 292.841 232.983 293.801C233.37 295.727 233.763 297.667 234.163 299.621C234.957 303.521 235.76 307.471 236.573 311.471C238.2 319.471 239.867 327.647 241.573 336.001C244.963 352.701 248.503 370.071 252.133 388.001L251.883 387.801H289.173C289.665 387.782 290.157 387.812 290.643 387.891C291.644 388.106 292.525 388.696 293.103 389.541C293.689 390.383 293.929 391.417 293.773 392.431C293.682 393.045 293.45 393.629 293.094 394.138C292.738 394.646 292.269 395.065 291.723 395.361C291.174 395.653 290.565 395.818 289.943 395.841H189.853H101.423H101.263V395.681C94.6233 362.931 89.2633 336.301 85.4933 317.841C83.6333 308.621 82.1933 301.441 81.2133 296.561C80.7333 294.121 80.3667 292.271 80.1133 291.011C79.8633 289.751 79.7533 289.111 79.7533 289.111C79.7533 289.111 79.9033 289.751 80.1633 290.991C80.4233 292.231 80.8233 294.111 81.3233 296.531C82.3233 301.411 83.8133 308.581 85.7133 317.801C89.4933 336.251 94.9433 362.871 101.653 395.601L101.453 395.441L189.883 395.391H289.903C290.441 395.369 290.967 395.229 291.443 394.981C291.916 394.72 292.324 394.355 292.634 393.913C292.944 393.471 293.149 392.964 293.233 392.431C293.362 391.545 293.155 390.642 292.653 389.901C292.142 389.171 291.374 388.661 290.503 388.471C290.053 388.403 289.598 388.376 289.143 388.391H251.643V388.191C248.013 370.281 244.483 352.911 241.103 336.191C239.403 327.831 237.737 319.651 236.103 311.651L233.703 299.801C233.313 297.851 232.913 295.911 232.523 293.991C232.333 292.991 232.133 292.061 231.943 291.111L231.653 289.671C231.578 289.207 231.458 288.751 231.293 288.311C231.018 287.679 230.581 287.132 230.026 286.725C229.471 286.317 228.818 286.064 228.133 285.991C227.693 285.991 227.193 285.991 226.723 285.991L221.023 285.921L209.873 285.801L188.623 285.551L150.673 285.101L96.2433 284.431L87.7733 284.321L84.3833 284.271C83.8952 284.241 83.4053 284.268 82.9233 284.351C82.4936 284.439 82.0815 284.598 81.7033 284.821C81.1639 285.136 80.7034 285.57 80.3568 286.09C80.0102 286.61 79.7868 287.202 79.7033 287.821C79.6636 288.25 79.6703 288.683 79.7233 289.111Z" fill="#263238"/>
<path d="M160.29 344.081C163.726 344.081 166.51 341.296 166.51 337.861C166.51 334.425 163.726 331.641 160.29 331.641C156.855 331.641 154.07 334.425 154.07 337.861C154.07 341.296 156.855 344.081 160.29 344.081Z" fill="#B4B4B4"/>
<path d="M79.9062 290C79.9062 290 80.1263 290 80.5563 290H89.7763L116.706 290.13L205.556 290.75L218.406 290.86H221.566C222.105 290.84 222.644 290.873 223.176 290.96C223.99 291.126 224.742 291.513 225.349 292.08C225.956 292.646 226.395 293.37 226.616 294.17C226.856 295.17 227.026 296.17 227.236 297.17L231.826 320.31C234.736 335.06 237.366 348.31 239.566 359.5C241.766 370.69 243.566 379.67 244.746 385.92C245.346 389.03 245.806 391.45 246.126 393.11C246.276 393.92 246.396 394.55 246.476 394.99C246.556 395.43 246.576 395.63 246.576 395.63C246.576 395.63 246.516 395.42 246.426 395C246.336 394.58 246.196 393.94 246.026 393.13L244.546 386C243.286 379.75 241.466 370.74 239.206 359.61C236.946 348.48 234.306 335.18 231.356 320.44C229.886 313.07 228.356 305.33 226.736 297.31C226.526 296.31 226.346 295.31 226.126 294.31C225.862 293.36 225.257 292.541 224.426 292.01C224.014 291.746 223.556 291.563 223.076 291.47C222.574 291.388 222.065 291.358 221.556 291.38H218.406L205.556 291.28L116.706 290.5L89.7763 290.2L82.4563 290H80.5463H79.9062Z" fill="#263238"/>
<path d="M437.808 87.7924C438.278 84.3524 433.428 81.5324 429.808 81.2324C428.078 81.0924 426.268 81.3624 424.628 80.7924C421.058 79.5424 419.628 74.9424 416.158 73.4724C413.558 72.3824 410.568 73.3524 408.048 74.6224C405.528 75.8924 403.048 77.4924 400.218 77.6724C397.768 77.8224 395.108 76.9224 392.968 78.1124C391.368 79.0024 390.538 80.8424 389.068 81.9324C387.535 82.8788 385.759 83.3583 383.958 83.3124C382.166 83.2723 380.383 83.5639 378.698 84.1724C377.068 84.9224 375.698 86.6424 376.058 88.4024L437.808 87.7924Z" fill="#D7D6D6"/>
<path d="M171.559 99.624C171.939 96.924 168.129 94.704 165.259 94.474C163.893 94.5295 162.525 94.4119 161.189 94.124C158.389 93.124 157.269 89.524 154.529 88.374C152.529 87.514 150.139 88.274 148.159 89.274C146.179 90.274 144.219 91.524 141.999 91.664C140.079 91.794 137.999 91.074 136.299 92.014C135.049 92.724 134.389 94.164 133.229 95.014C132.031 95.7616 130.64 96.1407 129.229 96.104C127.819 96.0707 126.415 96.3013 125.089 96.784C124.436 97.0403 123.881 97.4987 123.507 98.0925C123.133 98.6862 122.958 99.384 123.009 100.084L171.559 99.624Z" fill="#D7D6D6"/>
<path d="M374.808 33.7924C375.278 30.3524 370.428 27.5324 366.808 27.2324C365.078 27.0924 363.268 27.3624 361.628 26.7924C358.058 25.5424 356.628 20.9424 353.158 19.4724C350.558 18.3824 347.568 19.3524 345.048 20.6224C342.528 21.8924 340.048 23.4924 337.218 23.6724C334.768 23.8224 332.108 22.9224 329.968 24.1124C328.368 25.0024 327.538 26.8424 326.068 27.9324C324.535 28.8788 322.759 29.3583 320.958 29.3124C319.166 29.2723 317.383 29.5639 315.698 30.1724C314.068 30.9224 312.698 32.6424 313.058 34.4024L374.808 33.7924Z" fill="#D7D6D6"/>
<path d="M244.808 45.7924C245.278 42.3524 240.428 39.5324 236.808 39.2324C235.078 39.0924 233.268 39.3624 231.628 38.7924C228.058 37.5424 226.628 32.9424 223.158 31.4724C220.558 30.3824 217.568 31.3524 215.048 32.6224C212.528 33.8924 210.048 35.4924 207.218 35.6724C204.768 35.8224 202.108 34.9224 199.968 36.1124C198.368 37.0024 197.538 38.8424 196.068 39.9324C194.535 40.8788 192.759 41.3583 190.958 41.3124C189.166 41.2723 187.383 41.5639 185.698 42.1724C184.068 42.9224 182.698 44.6424 183.058 46.4024L244.808 45.7924Z" fill="#D7D6D6"/>
<defs>
<filter id="filter0_f_1580_287" x="0" y="3" width="557" height="511" filterUnits="userSpaceOnUse" color-interpolation-filters="sRGB">
<feFlood flood-opacity="0" result="BackgroundImageFix"/>
<feBlend mode="normal" in="SourceGraphic" in2="BackgroundImageFix" result="shape"/>
<feGaussianBlur stdDeviation="50" result="effect1_foregroundBlur_1580_287"/>
</filter>
<linearGradient id="paint0_linear_1580_287" x1="124.278" y1="81.8503" x2="432.342" y2="435.48" gradientUnits="userSpaceOnUse">
<stop stop-color="#B9B9B9" stop-opacity="0.05"/>
<stop offset="1" stop-color="#533916" stop-opacity="0.25"/>
</linearGradient>
</defs>
</svg>
